<svg xmlns="http://www.w3.org/2000/svg" viewBox="0 0 595.27 595.28" class="mimesia-icon">
    <title>Mimesia Logo</title>
    <path fill="#2269ca" class="mimesia-symbol" d="M414.73,201.87a129,129,0,0,0-106.42,56V201.72q45.57-4,68.17-32.61a102.08,102.08,0,0,0,22.59-65q0-38.9-22-63.11T329.28,16.77q-14.68,0-25.07,8.48T290.77,44.89Q287.72,56,287.72,80.26V191q-52.44-13.16-52.44-87.71,0-68.83,42.14-79.7V16.77q-33.75,1.53-55.49,25.45T200.2,103.91q0,41.95,23.93,68.17t63.59,29.65v57.33A129.11,129.11,0,0,0,51.42,331c0,71.31,37.52,94.29,129.12,159.12s117.09,96.26,117.09,96.26,31.11-35.47,117.09-96.31S543.84,402.29,543.84,331A129.12,129.12,0,0,0,414.73,201.87ZM308.31,78q0-17.92,1-24a19.84,19.84,0,0,1,5.34-10.58,14.07,14.07,0,0,1,10.58-4.48q17.35,0,30.22,21.45t12.87,53.1q0,68.64-60.06,77.6Z"/>
</svg>